<svg xmlns="http://www.w3.org/2000/svg" width="32" height="42" viewBox="0 0 32 42">
  <g fill="none" fill-rule="nonzero" stroke-width=".094">
    <path fill="#E92D2F" stroke="#E92D2F" d="M20.2 0c.9 1.1 1.3 2.7 1 4-.3 1.6-1.2 3-2.2 4.2-.8 1-1.8 1.8-2.8 2.7-1.2.9-2.3 1.9-3 3.3-.6 1.1-.8 2.4-.3 3.5.7 2 2.3 3.4 3.2 5.3-.9-.8-1.9-1.8-2.8-2.7-.9-1-1.8-2-2.4-3.3-.4-.8-.6-1.8-.3-2.8.3-.9.9-1.7 1.6-2.4 1.8-1.8 4.1-3.2 6-5.1 1-1 1.8-2.3 2.1-3.7.2-.9.1-2-.1-3zm-1.5 11.7c2-1.4 4.3-2.4 6.6-3.1-1.8 1.2-3.8 2.3-5.4 3.8-.6.6-1.2 1.2-1.4 2-.2.6-.1 1.3.1 1.8.4 1 1.2 1.8 1.7 2.7.5.8.6 1.8.2 2.6-.5 1.2-1.6 2.1-2.7 2.8-.2.1-.3.3-.4.3.8-.7 1.3-1.6 1.3-2.6 0-.8-.4-1.4-.9-1.9-1-1.2-1.8-2.8-1.7-4.4.1-1.8 1.3-3.1 2.6-4z"/>
    <path fill="#0774BA" stroke="#0774BA" d="M25.7 23.5c.4-.5 1.1-.7 1.8-.8 1.1-.2 2.3.2 3 .8.7.6 1.1 1.5.9 2.4-.2 1.1-.8 1.9-1.7 2.6-1.4 1.2-3.2 1.8-5 2.3l.3-.3c1.3-.8 2.7-1.6 3.7-2.8.6-.8 1.1-1.7.8-2.7-.2-1.1-1.3-1.9-2.4-2-.4.2-.9.3-1.4.5zm-20.6.9c1.8-.8 3.9-1.3 6-1.3-1.2.3-2.4.7-3.5 1.2-.3.2-.6.3-.8.6 0 .1.2.3.3.3.7.3 1.4.3 2.2.4 2.6.2 5.2.1 7.9-.1 2.6-.2 5.1-.5 7.6-.9-.6.3-1.2.5-1.7.8-.3.2-.6.3-.9.3-3.1.7-6.4.9-9.6.9-1.3 0-2.4 0-3.7-.1-1.3-.1-2.8-.2-4.1-.6-.2.1-.5 0-.8-.3-.2-.1-.2-.3 0-.5.3-.3.7-.5 1.1-.7zm2.5 4.4c.5-.4 1.2-.7 1.8-.8-.2.3-.5.5-.5.8 0 .3.2.4.3.5.3.2.8.3 1.1.3 1.9.2 3.9.3 6 .2 1.8-.1 3.6-.4 5.4-.7.5.4 1.1.8 1.7 1.1-2.2.7-4.4 1-6.6 1.2-2.1.2-4.3.2-6.4-.2-.8-.2-1.7-.3-2.4-.8-.3-.2-.7-.4-.8-.8 0-.4.1-.6.4-.8zm1.1 4.4c.5-.4 1.1-.6 1.6-.8-.2.2-.5.4-.3.7.3.3.8.4 1.2.5 1.8.3 3.4.3 5.2.3 1.3-.1 2.6-.3 3.9-.5.8.4 1.5.8 2.3 1.1-1.2.5-2.5.9-3.8 1.2-2.2.4-4.4.4-6.6.1-1-.2-1.9-.4-2.9-.8-.3-.2-.7-.4-.8-.8-.2-.4 0-.8.2-1zm-5.6 2.9c.9-.3 1.9-.6 2.9-.6.4 0 .8 0 1.2.3-1.2.1-2.4.3-3.4.9-.3.2-.5.3-.6.6 0 .3.3.4.6.5 1.5.6 3.1.8 4.6.9 4.6.4 9.3.3 13.9-.2 1.8-.2 3.5-.4 5.2-.8.5-.2 1.2-.3 1.5-.8.3-.3.1-.7-.2-.9.3.2.8.4.8.9-.2.5-.7.8-1 1-1.3.7-2.8 1-4.2 1.3-4.2.8-8.4 1-12.7.8-3.2-.1-6.4-.4-9.6-.9-.6-.2-1.2-.3-1.6-.7-.3-.3 0-.8.3-.9.6-.7 1.5-1.1 2.3-1.4zm25.5 3.5c1-.3 2.1-.8 2.9-1.6-.2.9-.9 1.5-1.7 1.9-1.4.8-3.1 1.1-4.7 1.4-3.4.5-6.9.7-10.3.6-2.4-.1-4.8-.2-7.1-.7-.6-.2-1.2-.3-1.7-.6 2.1.3 4.2.5 6.3.6 3.4.1 6.9 0 10.3-.4 2-.2 4-.6 6-1.2z"/>
  </g>
</svg>
