<svg xmlns="http://www.w3.org/2000/svg" width="40" height="40" viewBox="0 0 40 40">
  <path fill="#F8DC3C" fill-rule="nonzero" d="M38.3 0H1.7C.8 0 0 .8 0 1.7v36.5c0 1 .8 1.7 1.7 1.7h36.5c1 0 1.7-.8 1.7-1.7V1.7C40 .8 39.2 0 38.3 0zM23.9 30.8c0 .5-.1 1-.2 1.7-.1.5-.3 1.1-.6 1.6s-.7.9-1.3 1.2c-.5.3-1.2.4-2.1.4-1.1 0-2-.3-2.7-.9-.7-.6-1.1-1.3-1.4-2.3l2.3-.6c.1.4.3.8.6 1.1.3.3.7.4 1.1.4.3 0 .6-.1.9-.2.3-.1.4-.3.5-.5.1-.3.2-.5.3-.9.1-.4.1-.7.1-1.1v-9.4h2.5v9.5zm11.3 2.3c-.3.5-.6 1-1.1 1.4-.4.3-1 .6-1.7.9-.6.2-1.3.3-1.9.3-.9 0-1.8-.2-2.7-.5-.9-.3-1.6-.9-2.1-1.5l1.7-1.7c.3.4.8.9 1.4 1.1.6.3 1.1.4 1.7.4.3 0 .6 0 .9-.1.3-.1.6-.2.8-.3.3-.2.4-.3.6-.6.2-.3.3-.6.3-1 0-.3-.1-.7-.3-1-.2-.3-.4-.4-.7-.6-.3-.2-.6-.3-1-.4-.4-.1-.8-.3-1.2-.4-.4-.2-.9-.3-1.3-.4-.4-.2-.8-.4-1.1-.7-.3-.3-.6-.7-.8-1.1-.2-.4-.3-1-.3-1.7s.2-1.3.4-1.8c.3-.5.7-1 1.1-1.3.4-.3 1-.6 1.7-.8.6-.2 1.2-.3 1.8-.3.7 0 1.4.1 2.2.3.7.3 1.4.6 1.9 1.1l-1.7 1.7c-.3-.3-.6-.6-1.1-.9-.5-.3-1-.3-1.5-.3-.3 0-.6 0-.9.1-.3.1-.5.2-.8.3-.3.2-.4.3-.6.6-.2.3-.3.5-.3.9s.1.6.2.8c.2.3.3.4.5.6.3.2.5.3.9.4.3.1.7.3 1 .3.4.2.9.3 1.4.5.5.2 1 .4 1.3.7.4.3.7.7 1 1.1.3.4.3 1 .3 1.7.5 1 .3 1.7 0 2.2z"/>
</svg>
