<svg xmlns="http://www.w3.org/2000/svg" width="42" height="42" viewBox="0 0 42 42">
  <g fill="#652278" fill-rule="evenodd">
    <path d="M0 21v21h42V0H0v21zm33.842-9.95c.024.02.048.14.048.273v.236l-.242-.037c-.296-.05-.568.054-.66.254-.036.085-.066.333-.066.557v.405l.394-.013.393-.006v.534h-.788v3.026h-.605v-3.026h-.605v-.515h.574l.03-.515c.043-.732.25-1.023.848-1.217.146-.048.575-.024.678.043zm-19.172.182c.15.152.12.418-.067.563-.18.145-.35.12-.52-.073-.115-.127-.097-.357.03-.508.09-.11.442-.097.557.018zm-5.998.158c.12.302 1.622 3.758 1.665 3.83.03.067.308-.496.926-1.888l.877-1.985.375-.018.375-.02V16.28h-.623l.036-2.076c.025-1.592.013-2.034-.036-1.925-.042.084-.442 1.01-.89 2.057-.798 1.864-.823 1.912-.998 1.93l-.183.013-.87-2.058c-.48-1.132-.885-2.058-.903-2.058-.012 0-.006.926.012 2.058l.043 2.058h-.667v-2.427c0-1.338.012-2.457.03-2.482.05-.083.793-.065.83.02zm26.562.84l.018.49.412.007.405.006v.52h-.848v1.12c0 .714.024 1.168.073 1.265.078.182.405.266.63.163.138-.06.144-.06.144.207 0 .31-.08.357-.6.345-.38-.006-.587-.127-.744-.442-.09-.175-.11-.38-.11-1.434v-1.222h-.604v-.52h.29l.284.005.02-.437c.017-.41.023-.435.18-.496.09-.03.224-.06.297-.06.127-.006.133.024.15.484zm2.657-.09c.55.278.636 1.04.176 1.483-.4.38-.932.38-1.33 0-.177-.164-.243-.285-.273-.49-.122-.817.69-1.38 1.428-.993zm-19.837.63c.145.072.163.114.163.375 0 .157-.012.29-.024.29s-.14-.054-.285-.12c-.496-.225-1.065-.134-1.397.217-.376.405-.48 1.174-.224 1.695.26.55.944.78 1.53.52.152-.073.303-.133.328-.145.024-.012.042.103.042.248.006.32-.085.387-.61.49-.425.085-.837.024-1.23-.18-.61-.31-.95-1.145-.8-1.968.134-.708.467-1.144 1.072-1.398.303-.127.43-.146.81-.127.25.012.528.06.625.102zm2.753-.06c.05 0 .073.108.073.332 0 .314-.007.333-.116.272-.333-.175-.787 0-.986.38-.128.237-.14.346-.158 1.418l-.024 1.168h-.594V12.733l.29.006.285.005.03.303c.024.224.042.266.08.17.102-.285.646-.606.92-.54.065.02.156.03.198.03zm2.675.035c.45.133.812.49.976.962.18.515.145 1.326-.08 1.756-.32.61-.816.9-1.56.9-.376.007-.515-.023-.8-.162-.617-.302-.907-.822-.913-1.645 0-.55.08-.86.327-1.223.4-.58 1.252-.823 2.05-.587zm3.59.018c.145.055.163.09.163.37 0 .163-.006.302-.018.302-.006 0-.12-.054-.254-.12-.265-.14-.707-.158-.93-.043-.2.097-.28.357-.176.57.054.114.23.24.58.422.763.382.92.57.92 1.096 0 .61-.514 1.01-1.3 1.004-.25 0-.515-.042-.648-.103-.224-.09-.23-.108-.23-.398 0-.17.012-.31.024-.31.018 0 .133.062.26.134.176.11.32.14.642.14.363 0 .43-.02.532-.146.158-.187.146-.44-.018-.593-.08-.066-.363-.236-.64-.38-.57-.297-.746-.497-.788-.91-.05-.49.266-.925.775-1.082.248-.073.865-.048 1.107.048zm3.16-.048c.43.12.73.38.943.817.182.363.2.448.194.95 0 .684-.145 1.07-.545 1.44-.363.333-.63.436-1.168.442-.61.006-.944-.127-1.3-.52-.358-.4-.48-.8-.443-1.465.038-.685.25-1.072.794-1.49.278-.21 1.07-.302 1.525-.175zm-15.536 1.797l.012 1.768H14.1v-3.553l.29.012.286.005.018 1.767zm-1.47 8.673c1.863 2.935 3.413 5.374 3.45 5.416.04.062.06-1.615.06-5.312v-5.405l.774-.018.77-.018V30.81l-.95-.018-.952-.018-.865-1.362c-.477-.75-1.476-2.318-2.22-3.48-.738-1.168-1.92-3.014-2.614-4.11l-1.265-1.99-.017 5.483-.013 5.49H7.807v-6.44c0-3.54.018-6.45.042-6.476.017-.02.477-.037 1.01-.037h.974l3.39 5.332zm14.433-4.606v.725h-5.023v4.237h4.66v1.392h-4.66v4.478h5.326v1.392h-6.9V24.37c0-3.54.02-6.456.043-6.475.018-.024 1.507-.042 3.298-.042h3.257v.726zm10.67 0l.006.695-1.858.018-1.858.012v11.5H33.05l.01-5.75.013-5.75h-3.721V17.852l4.484.012 4.484.018.007.696zM5.084 29.06c.83.425.768 1.57-.097 1.9-.242.092-.32.098-.563.032-.835-.224-1.07-1.265-.406-1.798.37-.296.666-.333 1.066-.133z"/>
    <path d="M36.977 12.297c-.284.194-.375.382-.345.733.042.496.502.835.974.702.388-.11.58-.376.58-.805 0-.23-.035-.32-.198-.496-.17-.18-.255-.223-.503-.248-.242-.024-.333 0-.508.115zm.738.152c.146.126.14.332-.012.47-.103.092-.11.128-.042.207.043.054.11.17.152.26.06.15.06.17-.048.17-.08 0-.164-.086-.242-.243-.067-.133-.164-.242-.212-.242-.067 0-.09.067-.09.242 0 .176-.025.242-.092.242-.072 0-.09-.11-.09-.605v-.604h.284c.175 0 .32.036.393.103zm-15.335.822c-.442.2-.648.593-.654 1.252 0 .932.52 1.43 1.362 1.302.54-.08.877-.587.877-1.295-.006-.853-.405-1.343-1.083-1.33-.187 0-.41.035-.502.072zm6.7.06c-.146.085-.303.242-.394.406-.127.23-.15.35-.15.786 0 .454.017.55.162.8.297.502.932.67 1.49.405.217-.11.295-.195.416-.46.133-.298.152-.394.127-.867-.017-.447-.047-.568-.18-.768-.085-.133-.254-.285-.37-.34-.308-.15-.804-.132-1.1.037z"/>
  </g>
</svg>
