<svg xmlns="http://www.w3.org/2000/svg" width="41" height="40" viewBox="0 0 41 40">
  <defs>
    <linearGradient id="a" x1="12.959%" x2="79.639%" y1="11.87%" y2="78.327%">
      <stop stop-color="#387EB8" offset="0%"/>
      <stop stop-color="#366994" offset="100%"/>
    </linearGradient>
    <linearGradient id="b" x1="19.128%" x2="90.742%" y1="20.448%" y2="88.601%">
      <stop stop-color="#FFE052" offset="0%"/>
      <stop stop-color="#FFC331" offset="100%"/>
    </linearGradient>
  </defs>
  <g fill="none" fill-rule="nonzero">
    <path fill="url(#a)" d="M20.432.36c-10.08 0-9.452 4.37-9.452 4.37l.012 4.53h9.62v1.36H7.17S.72 9.888.72 20.06c0 10.173 5.63 9.812 5.63 9.812h3.36v-4.72s-.18-5.63 5.54-5.63h9.543s5.36.086 5.36-5.182V5.63S30.97.36 20.434.36zm-5.304 3.044c.957 0 1.73.774 1.73 1.73 0 .958-.773 1.732-1.73 1.732-.958 0-1.73-.774-1.73-1.73 0-.958.772-1.732 1.73-1.732z"/>
    <path fill="url(#b)" d="M20.72 39.865c10.08 0 9.45-4.372 9.45-4.372l-.01-4.53h-9.62v-1.36h13.44s6.452.732 6.452-9.44c0-10.173-5.63-9.812-5.63-9.812h-3.36v4.72s.18 5.632-5.542 5.632h-9.542s-5.36-.087-5.36 5.18v8.712s-.815 5.27 9.72 5.27zm5.304-3.046c-.958 0-1.73-.775-1.73-1.732s.772-1.73 1.73-1.73c.957 0 1.73.773 1.73 1.73s-.773 1.73-1.73 1.73z"/>
  </g>
</svg>
