<svg xmlns="http://www.w3.org/2000/svg" width="38" height="39" viewBox="0 0 38 39">
  <path fill="#CC342D" fill-rule="nonzero" d="M1.4 20.6c.3-.8.5-2.3 1.2-3.6 3.2-6.5 8.2-11.2 14.7-14.1 1.3-.6 2.8-.8 4.2-.8 1.8 0 2.9 1.2 3.1 3 .1.9.1 1.9-.3 2.8-3.1 8.4-9 14-17.4 17.2-.3.1-.7.2-1 .2-2.7.5-4.5-1.1-4.5-4.7zm21.8-6.3c4.5-.3 9.1-.7 13.8-1l-.8-.8C32.1 9.3 28 6 23.9 2.6c-.4-.3-.7-.8-1.2-1.6h4.6c1.7 0 3.5-.2 5.1.2 3.6.7 5.6 3 5.5 6.7-.1 3.5-.4 6.9-.7 10.4-.4 5.3-.8 10.5-1.2 15.8-.1.9-.2 1.9-.3 2.9-1.9-1.7-3.7-3.4-5.6-5-.3-.3-.4-.5-.7-.7-2.2-1.4-3.1-3.5-3.6-6.1-.7-3.3-1.6-6.6-2.4-9.9-.1-.2-.1-.5-.2-1zM6 34.5c1-.2 1.9-.2 2.8-.4.3-.1.8-.5.8-.8.8-2.6 1.6-5.2 2.4-7.9.1-.3.2-.4.3-.8 4.8 1.5 9.5 3 14.4 4.6-2.5 2.6-5.2 4.7-8.3 6.7 5.4.4 10.8.8 16.1 1.3v.2c-1.2.1-2.4.2-3.5.3-6.8.4-13.6.9-20.5 1.3-1.1-.1-2.2 0-3.3 0-4.6-.1-7.2-2.6-7.2-7.2 0-2.6.3-5.2.4-7.8 0-.2.3-.3.4-.6.3.2.6.3.7.6l4 9.6c.2.3.3.5.5.9z"/>
</svg>
